<svg width="32" height="32" viewBox="0 0 32 32" fill="none" xmlns="http://www.w3.org/2000/svg">
  <path d="M16 28V14" stroke="#2DD4BF" stroke-width="2.5" stroke-linecap="round"/>
  <path d="M16 14C16 14 12 10 12 6C12 3 14 2 16 2" stroke="#2DD4BF" stroke-width="2.5" stroke-linecap="round" fill="none"/>
  <path d="M16 14C16 14 20 10 20 6C20 3 18 2 16 2" stroke="#2DD4BF" stroke-width="2.5" stroke-linecap="round" fill="none"/>
  <path d="M16 18C16 18 8 14 6 8C5 5 7 3 9 4" stroke="#1E293B" stroke-width="2.5" stroke-linecap="round" fill="none" opacity="0.8"/>
  <path d="M16 18C16 18 24 14 26 8C27 5 25 3 23 4" stroke="#1E293B" stroke-width="2.5" stroke-linecap="round" fill="none" opacity="0.8"/>
</svg>



